# xmcd CD database file
#
# Track frame offsets:
#	150
#	4660
#	21013
#	36983
#	49864
#	64542
#	79627
#	95930
#	116597
#	129317
#	142067
#	160566
#
# Disc length: 2199 seconds
#
# Revision: 0
# Processed by: cddbd v1.4PL0 Copyright (c) Steve Scherf et al.
# Submitted via: CDex 1.40Release
#
DISCID=9708950c
DTITLE=Frankie Miller - High Life
DYEAR=1974
DGENRE=Blues
TTITLE0=High Life (filler)
TTITLE1=Play Something Sweet (Brickyard Blues)
TTITLE2=Trouble
TTITLE3=A Fool
TTITLE4=Little Angel
TTITLE5=With You In Mind
TTITLE6=The Devil Gun
TTITLE7=I'll Take A Melody
TTITLE8=Just A Song
TTITLE9=Shoo-Rah
TTITLE10=I'm Falling In Love Again
TTITLE11=With You In Mind
EXTD=YEAR: 1974 ID3G: 0
EXTT0=
EXTT1=
EXTT2=
EXTT3=
EXTT4=
EXTT5=
EXTT6=
EXTT7=
EXTT8=
EXTT9=
EXTT10=
EXTT11=
PLAYORDER=
